<?xml version="1.0" encoding="utf-8"?>
<!-- Generator: Adobe Illustrator 16.0.0, SVG Export Plug-In . SVG Version: 6.00 Build 0)  -->
<!DOCTYPE svg PUBLIC "-//W3C//DTD SVG 1.1//EN" "http://www.w3.org/Graphics/SVG/1.1/DTD/svg11.dtd">
<svg version="1.1" id="Capa_1" xmlns="http://www.w3.org/2000/svg" xmlns:xlink="http://www.w3.org/1999/xlink" x="0px" y="0px"
	 width="548px" height="136.667px" viewBox="0 0 548 136.667" enable-background="new 0 0 548 136.667" xml:space="preserve">
<g>
	<defs>
		<rect id="SVGID_1_" x="-46.969" y="-63" width="673.242" height="266.667"/>
	</defs>
	<clipPath id="SVGID_2_">
		<use xlink:href="#SVGID_1_"  overflow="visible"/>
	</clipPath>
	<path clip-path="url(#SVGID_2_)" fill="#2C2A29" d="M173.166,94.468c-13.744,0-23.951-10.607-23.951-24.017v-0.133
		c0-13.276,10.008-24.15,24.35-24.15c8.807,0,14.077,2.935,18.413,7.205l-6.538,7.538c-3.602-3.268-7.271-5.27-11.94-5.27
		c-7.872,0-13.543,6.538-13.543,14.544v0.133c0,8.005,5.537,14.676,13.543,14.676c5.336,0,8.605-2.134,12.274-5.47l6.538,6.604
		C187.508,91.265,182.171,94.468,173.166,94.468"/>
	<path clip-path="url(#SVGID_2_)" fill="#2C2A29" d="M214.98,94.468c-11.075,0-19.281-8.205-19.281-18.479v-0.134
		c0-10.273,8.273-18.612,19.414-18.612c11.074,0,19.279,8.205,19.279,18.479v0.133C234.392,86.129,226.121,94.468,214.98,94.468
		 M224.386,75.854c0-5.27-3.803-9.874-9.406-9.874c-5.805,0-9.273,4.471-9.273,9.741v0.133c0,5.27,3.802,9.873,9.406,9.873
		c5.803,0,9.273-4.469,9.273-9.739V75.854z"/>
	<path clip-path="url(#SVGID_2_)" fill="#2C2A29" d="M257.926,94.468c-11.074,0-19.28-8.205-19.28-18.479v-0.134
		c0-10.273,8.273-18.612,19.414-18.612c11.074,0,19.279,8.205,19.279,18.479v0.133C277.339,86.129,269.067,94.468,257.926,94.468
		 M267.333,75.854c0-5.27-3.802-9.874-9.406-9.874c-5.804,0-9.273,4.471-9.273,9.741v0.133c0,5.27,3.803,9.873,9.407,9.873
		c5.803,0,9.272-4.469,9.272-9.739V75.854z"/>
	<polygon clip-path="url(#SVGID_2_)" fill="#2C2A29" points="307.698,93.667 298.357,79.056 294.822,82.793 294.822,93.667 
		284.682,93.667 284.682,46.972 294.822,46.972 294.822,70.918 306.697,57.909 318.838,57.909 305.228,71.985 319.305,93.667 	"/>
	<polygon clip-path="url(#SVGID_2_)" fill="#2C2A29" points="361.739,93.667 361.739,63.18 348.598,83.126 348.33,83.126 
		335.321,63.379 335.321,93.667 325.247,93.667 325.247,46.968 336.321,46.968 348.598,66.715 360.872,46.968 371.946,46.968 
		371.946,93.667 	"/>
	<path clip-path="url(#SVGID_2_)" fill="#2C2A29" d="M403.039,93.667v-3.869c-2.468,2.734-5.87,4.536-10.807,4.536
		c-6.738,0-12.276-3.869-12.276-10.94V83.26c0-7.806,5.938-11.408,14.411-11.408c3.603,0,6.204,0.602,8.739,1.469v-0.602
		c0-4.202-2.603-6.537-7.672-6.537c-3.869,0-6.605,0.733-9.874,1.934l-2.534-7.739c3.936-1.734,7.805-2.868,13.876-2.868
		c11.074,0,15.944,5.737,15.944,15.41v20.748H403.039z M403.24,79.257c-1.735-0.801-4.003-1.334-6.472-1.334
		c-4.336,0-7.004,1.734-7.004,4.937v0.133c0,2.736,2.268,4.337,5.536,4.337c4.736,0,7.939-2.602,7.939-6.271V79.257z"/>
	<path clip-path="url(#SVGID_2_)" fill="#2C2A29" d="M434.131,94.334c-5.004,0-10.606-1.668-15.344-5.403l4.337-6.672
		c3.869,2.803,7.939,4.271,11.274,4.271c2.936,0,4.269-1.068,4.269-2.669v-0.134c0-2.201-3.468-2.936-7.403-4.136
		c-5.005-1.469-10.676-3.804-10.676-10.741v-0.134c0-7.271,5.872-11.341,13.077-11.341c4.536,0,9.474,1.535,13.342,4.137
		l-3.868,7.005c-3.536-2.069-7.072-3.336-9.675-3.336c-2.468,0-3.734,1.067-3.734,2.468v0.134c0,2.001,3.4,2.935,7.271,4.269
		c5.003,1.668,10.809,4.069,10.809,10.608v0.133C447.809,90.732,441.87,94.334,434.131,94.334"/>
	<path clip-path="url(#SVGID_2_)" fill="#2C2A29" d="M466.49,94.268c-6.204,0-10.407-2.469-10.407-10.74V66.581h-4.269v-8.672h4.269
		V48.77h10.141v9.139h8.405v8.672h-8.405v15.278c0,2.335,1.001,3.468,3.269,3.468c1.868,0,3.536-0.466,5.004-1.267v8.139
		C472.361,93.467,469.894,94.268,466.49,94.268"/>
	<path clip-path="url(#SVGID_2_)" fill="#2C2A29" d="M514.326,79.324h-24.884c1,4.604,4.202,7.004,8.739,7.004
		c3.402,0,5.87-1.066,8.673-3.668l5.803,5.137c-3.336,4.135-8.138,6.671-14.609,6.671c-10.741,0-18.68-7.538-18.68-18.479v-0.135
		c0-10.207,7.271-18.613,17.679-18.613c11.941,0,17.412,9.274,17.412,19.415v0.133C514.459,77.789,514.393,78.391,514.326,79.324
		 M497.047,65.381c-4.203,0-6.938,3.002-7.738,7.604h15.276C503.984,68.45,501.316,65.381,497.047,65.381"/>
	<path clip-path="url(#SVGID_2_)" fill="#2C2A29" d="M543.015,67.85c-6.737,0-10.873,4.069-10.873,12.608v13.209h-10.141V57.91
		h10.141v7.204c2.067-4.936,5.403-8.138,11.407-7.872V67.85H543.015z"/>
	<path clip-path="url(#SVGID_2_)" fill="#DA291C" d="M118.194,76.337c-5.848,0-10.887,6.027-10.887,6.027l-0.057,0.005
		c-5.251,6.248-14.304,10.387-24.578,10.387c-15.639,0-32.18-11.774-32.18-22.906c0-11.346,16.241-22.906,32.18-22.906
		c10.281,0,19.338,4.144,24.587,10.399l0.06,0.004c0,0,5.009,5.99,10.836,6.025h14.409C129.442,31.883,102.88,7.289,70.57,7.289
		c-34.409,0-62.304,27.895-62.304,62.304c0,34.411,27.895,62.305,62.304,62.305c32.133,0,58.577-24.329,61.936-55.57h-14.312V76.337
		z"/>
</g>
</svg>
